<svg width="1024" height="1024" viewBox="0 0 1024 1024" fill="none" xmlns="http://www.w3.org/2000/svg">
<g clip-path="url(#clip0_4_18)">
<path fill-rule="evenodd" clip-rule="evenodd" d="M3.24029 641.12C3.24029 641.12 -53.0535 283.938 303.636 149.557C502.432 74.6631 713.058 176.161 713.058 176.161C713.014 176.161 788.218 218.7 836.658 220.327C856.809 221.004 900.447 213.71 917.99 212.407C967.084 208.745 1013.23 213.559 1023.2 292.879C1030.39 350.04 986.716 364.548 986.716 364.548C986.716 364.548 956.799 369.425 942.119 370.692C918.072 372.769 894.187 384.66 896.671 414.419C900.679 462.353 934.314 513.25 945.122 562.563C955.931 611.876 962.632 778.078 786.569 856.448C613.838 933.332 210.113 926.025 36.3998 731.604C36.3998 731.604 6.8973 688.681 3.24029 641.12ZM51.112 616.716C51.112 616.716 37.6703 661.817 91.1888 716.265C144.707 770.713 355.008 900.837 714.42 813.784C846.782 781.725 894.992 716.373 906.801 651.254C919.87 579.177 888.766 539.514 888.766 539.514C888.766 539.514 876.673 505.067 828.601 505.841C795.538 506.372 761.374 535.42 771.842 581.605C793.135 675.546 794.502 722.659 751.572 729.039C720.356 733.679 698.161 724.977 690.509 694.953C684.297 670.623 681.351 646.103 680.624 591.837C680.624 591.837 676.694 534.981 631.973 538.598C602.286 541.004 571.16 604.124 571.16 604.124C571.16 604.124 529.242 691.378 472.074 682.836C414.907 674.294 409.607 607.707 328.786 619.235C247.965 630.762 161.307 691.52 100.148 668.052C49.3406 648.565 51.112 616.716 51.112 616.716ZM156.342 367.283C156.342 367.283 186.636 321.65 210.605 342.593C228.77 358.463 191.226 403.197 191.226 403.197C191.226 403.197 162.091 439.789 144.713 418.908C131.155 402.611 156.346 367.283 156.346 367.283H156.342ZM260.994 273.01C260.994 273.01 293.498 251.881 303.632 268.521C313.765 285.161 295.089 305.533 278.437 317.902C261.785 330.272 243.054 328.629 237.737 315.658C234.553 307.883 241.655 294.024 249.36 284.233C252.766 280.029 256.674 276.26 260.998 273.01H260.994ZM472.241 374.017L580.77 416.665C580.77 416.665 596.753 421.03 596.274 436.866C595.795 452.702 584.652 454.822 584.652 454.822L487.748 513.182C487.748 513.182 476.547 516.813 470.315 504.203C465.321 494.115 472.253 484.002 472.253 484.002L542.02 439.11L450.926 403.197C450.926 403.197 442.255 396.089 447.05 382.995C451.845 369.902 464.514 370.991 472.245 374.017H472.241ZM751.317 412.175L811.394 353.815C813.932 350.095 815.123 345.619 814.771 341.128C814.418 336.638 812.543 332.403 809.456 329.125C800.183 318.847 786.2 331.37 786.2 331.37L704.804 412.175C704.804 412.175 697.482 414.794 699.193 429.766C699.921 436.102 703.201 444.403 712.547 445.843L819.139 450.332C819.139 450.332 832 448.728 832.705 432.377C833.41 416.025 817.201 414.419 817.201 414.419L751.317 412.175Z" fill="black" stroke="black"/>
</g>
<defs>
<clipPath id="clip0_4_18">
<rect width="1024" height="1024" fill="white"/>
</clipPath>
</defs>
</svg>

